# xmcd CD database file
# Copyright (C) 1997 Ti Kan
#
# Track frame offsets:
#  182
#  17312
#  33552
#  50510
#  73742
#  85987
#  110450
#  126235
#  147850
#  157205
#  171397
#  185505
#  196907
#  207985
#  239440
#  252037
#
# Disc length: 3664 seconds
#
# Revision: 1
# Processed by: cddbd v1.4b41PL1 Copyright (c) Steve Scherf et al.
# Submitted via: CDWizzard Release:4.30
#
DISCID=e70e4e10
DTITLE=La meilleure selection de musique traditionelle sus americaine - K
DTITLE=aluyo
DYEAR=1900
DGENRE=
TTITLE0=Para ti -Equateur
TTITLE1=Kullawa -Perou
TTITLE2=Pucaicha -Equateur
TTITLE3=Abierto mi corazon -Bolivia
TTITLE4=Huaynito -Bolivia
TTITLE5=A la Luna -Perou
TTITLE6=Angela rosa - Paraguay
TTITLE7=Vaso de cristal -Perou
TTITLE8=Huamanga -Perou
TTITLE9=Otavalenita -Equateur
TTITLE10=Kayrany -Perou
TTITLE11=Asi es mi tierra -Equateur
TTITLE12=Amanecer andino -Perou
TTITLE13=Homenaje a Teofilo -Perou
TTITLE14=Cueca -Argentina
TTITLE15=Profesorita -Perou
EXTD=
EXTT0=
EXTT1=
EXTT2=
EXTT3=
EXTT4=
EXTT5=
EXTT6=
EXTT7=
EXTT8=
EXTT9=
EXTT10=
EXTT11=
EXTT12=
EXTT13=
EXTT14=
EXTT15=
PLAYORDER=
